<!-- Generated by IcoMoon.io -->
<svg version="1.1" xmlns="http://www.w3.org/2000/svg" width="30" height="32" viewBox="0 0 30 32">
<title>paw</title>
<path fill="#4e75ff" d="M9.395 31.082c0.278 0.231 0.627 0.357 0.988 0.357h16.424c0.819 0 1.604-0.325 2.183-0.904s0.904-1.364 0.904-2.183v-11.131c-0-0.76-0.281-1.492-0.787-2.058s-1.204-0.925-1.959-1.009l-11.148-1.24v-9.263c0-0.819-0.325-1.604-0.904-2.183s-1.364-0.904-2.183-0.904c-0.819 0-1.604 0.325-2.183 0.904s-0.904 1.364-0.904 2.183v18.526l-4.678-1.871c-0.391-0.156-0.809-0.231-1.23-0.22s-0.835 0.109-1.216 0.286c-0.382 0.177-0.723 0.43-1.004 0.744s-0.494 0.682-0.627 1.081l-0.174 0.525c-0.098 0.294-0.105 0.612-0.020 0.911s0.259 0.565 0.497 0.763l8.023 6.688z"></path>
</svg>
